# This file was created with Minddesk Qubicle 2.0
# Get Qubicle at www.minddesk.com

mtllib post.mtl

vn 0.0 0.0 1.0
vn 0.0 0.0 -1.0
vn -1.0 0.0 0.0
vn 1.0 0.0 0.0
vn 0.0 1.0 0.0
vn 0.0 -1.0 0.0

v -0.50000 3.00000 -2.00000
v -0.50000 -3.00000 -2.00000
v -1.50000 -3.00000 -2.00000
v -1.50000 3.00000 -2.00000
v 0.50000 3.00000 -3.00000
v 0.50000 -3.00000 -3.00000
v -0.50000 -3.00000 -3.00000
v -0.50000 3.00000 -3.00000
v 1.50000 3.00000 -2.00000
v 1.50000 -3.00000 -2.00000
v 0.50000 -3.00000 -2.00000
v 0.50000 3.00000 -2.00000
v -1.50000 3.00000 -1.00000
v -1.50000 -3.00000 -1.00000
v -0.50000 -3.00000 -1.00000
v -0.50000 3.00000 -1.00000
v -0.50000 3.00000 0.00000
v -0.50000 -3.00000 0.00000
v 0.50000 -3.00000 0.00000
v 0.50000 3.00000 0.00000
v 0.50000 3.00000 -1.00000
v 0.50000 -3.00000 -1.00000
v 1.50000 -3.00000 -1.00000
v 1.50000 3.00000 -1.00000

vt 0.03125 0.43750
vt 0.03125 0.06250
vt 0.06250 0.06250
vt 0.06250 0.43750
vt 0.12500 0.43750
vt 0.12500 0.06250
vt 0.15625 0.06250
vt 0.15625 0.43750
vt 0.21875 0.43750
vt 0.21875 0.06250
vt 0.25000 0.06250
vt 0.25000 0.43750
vt 0.31250 0.43750
vt 0.31250 0.06250
vt 0.34375 0.06250
vt 0.34375 0.43750
vt 0.40625 0.43750
vt 0.40625 0.06250
vt 0.43750 0.06250
vt 0.43750 0.43750
vt 0.50000 0.43750
vt 0.50000 0.06250
vt 0.53125 0.06250
vt 0.53125 0.43750
vt 0.59375 0.43750
vt 0.59375 0.06250
vt 0.62500 0.06250
vt 0.62500 0.43750
vt 0.68750 0.43750
vt 0.68750 0.06250
vt 0.71875 0.06250
vt 0.71875 0.43750
vt 0.78125 0.43750
vt 0.78125 0.06250
vt 0.81250 0.06250
vt 0.81250 0.43750
vt 0.87500 0.43750
vt 0.87500 0.06250
vt 0.90625 0.06250
vt 0.90625 0.43750
vt 0.03125 0.93750
vt 0.03125 0.56250
vt 0.06250 0.56250
vt 0.06250 0.93750
vt 0.12500 0.93750
vt 0.12500 0.56250
vt 0.15625 0.56250
vt 0.15625 0.93750
vt 0.21875 0.62500
vt 0.21875 0.56250
vt 0.31250 0.56250
vt 0.31250 0.62500
vt 0.37500 0.62500
vt 0.37500 0.56250
vt 0.46875 0.56250
vt 0.46875 0.62500
vt 0.53125 0.62500
vt 0.53125 0.56250
vt 0.56250 0.56250
vt 0.56250 0.62500
vt 0.62500 0.62500
vt 0.62500 0.56250
vt 0.65625 0.56250
vt 0.65625 0.62500
vt 0.71875 0.62500
vt 0.71875 0.56250
vt 0.75000 0.56250
vt 0.75000 0.62500
vt 0.81250 0.62500
vt 0.81250 0.56250
vt 0.84375 0.56250
vt 0.84375 0.62500

g Box_38
usemtl post_Material
f  1/25/2 2/26/2 3/27/2 4/28/2
f  5/21/2 6/22/2 7/23/2 8/24/2
f  9/33/2 10/34/2 11/35/2 12/36/2
f  13/29/1 14/30/1 15/31/1 16/32/1
f  17/17/1 18/18/1 19/19/1 20/20/1
f  21/5/1 22/6/1 23/7/1 24/8/1
f  4/1/3 3/2/3 14/3/3 13/4/3
f  8/13/3 7/14/3 2/15/3 1/16/3
f  16/9/3 15/10/3 18/11/3 17/12/3
f  12/45/4 11/46/4 6/47/4 5/48/4
f  20/41/4 19/42/4 22/43/4 21/44/4
f  24/37/4 23/38/4 10/39/4 9/40/4
f  4/53/5 13/54/5 24/55/5 9/56/5
f  8/65/5 1/66/5 12/67/5 5/68/5
f  16/69/5 17/70/5 20/71/5 21/72/5
f  14/49/6 3/50/6 10/51/6 23/52/6
f  2/57/6 7/58/6 6/59/6 11/60/6
f  18/61/6 15/62/6 22/63/6 19/64/6
