# This file was created with Minddesk Qubicle 2.0
# Get Qubicle at www.minddesk.com

mtllib pathsplit.mtl

vn 0.0 0.0 1.0
vn 0.0 0.0 -1.0
vn -1.0 0.0 0.0
vn 1.0 0.0 0.0
vn 0.0 1.0 0.0
vn 0.0 -1.0 0.0

v 13.50000 0.50000 -27.00000
v 13.50000 -0.50000 -27.00000
v -13.50000 -0.50000 -27.00000
v -13.50000 0.50000 -27.00000
v -13.50000 0.50000 0.00000
v -13.50000 -0.50000 0.00000
v 13.50000 -0.50000 0.00000
v 13.50000 0.50000 0.00000

vt 0.01563 0.43750
vt 0.01563 0.01563
vt 0.43750 0.01563
vt 0.43750 0.43750
vt 0.46875 0.43750
vt 0.46875 0.01563
vt 0.89063 0.01563
vt 0.89063 0.43750
vt 0.01563 0.48438
vt 0.01563 0.46875
vt 0.43750 0.46875
vt 0.43750 0.48438
vt 0.46875 0.48438
vt 0.46875 0.46875
vt 0.89063 0.46875
vt 0.89063 0.48438
vt 0.01563 0.53125
vt 0.01563 0.51563
vt 0.43750 0.51563
vt 0.43750 0.53125
vt 0.46875 0.53125
vt 0.46875 0.51563
vt 0.89063 0.51563
vt 0.89063 0.53125

g Box_68
usemtl pathsplit_Material
f  1/13/2 2/14/2 3/15/2 4/16/2
f  5/9/1 6/10/1 7/11/1 8/12/1
f  4/21/3 3/22/3 6/23/3 5/24/3
f  8/17/4 7/18/4 2/19/4 1/20/4
f  4/1/5 5/2/5 8/3/5 1/4/5
f  6/5/6 3/6/6 2/7/6 7/8/6
