# This file was created with Minddesk Qubicle 2.0
# Get Qubicle at www.minddesk.com

mtllib duckpeck.mtl

vn 0.0 0.0 1.0
vn 0.0 0.0 -1.0
vn -1.0 0.0 0.0
vn 1.0 0.0 0.0
vn 0.0 1.0 0.0
vn 0.0 -1.0 0.0

v 1.00000 1.50000 -3.00000
v 1.00000 -0.50000 -3.00000
v -4.00000 -0.50000 -3.00000
v -4.00000 1.50000 -3.00000
v 2.00000 0.50000 -3.00000
v 2.00000 -1.50000 -3.00000
v 1.00000 -1.50000 -3.00000
v 1.00000 0.50000 -3.00000
v 3.00000 1.50000 -3.00000
v 3.00000 0.50000 -3.00000
v -1.00000 -0.50000 -2.00000
v -1.00000 -1.50000 -2.00000
v -2.00000 -1.50000 -2.00000
v -2.00000 -0.50000 -2.00000
v 2.00000 -0.50000 -1.00000
v 2.00000 -1.50000 -1.00000
v 1.00000 -1.50000 -1.00000
v 1.00000 -0.50000 -1.00000
v 3.00000 -0.50000 -3.00000
v 2.00000 -0.50000 -3.00000
v 4.00000 1.50000 -2.00000
v 4.00000 0.50000 -2.00000
v 3.00000 0.50000 -2.00000
v 3.00000 1.50000 -2.00000
v -4.00000 1.50000 0.00000
v -4.00000 -0.50000 0.00000
v 1.00000 -0.50000 0.00000
v 1.00000 1.50000 0.00000
v 1.00000 0.50000 0.00000
v 1.00000 -1.50000 0.00000
v 2.00000 -1.50000 0.00000
v 2.00000 0.50000 0.00000
v 3.00000 0.50000 0.00000
v 3.00000 1.50000 0.00000
v -2.00000 -0.50000 -1.00000
v -2.00000 -1.50000 -1.00000
v -1.00000 -1.50000 -1.00000
v -1.00000 -0.50000 -1.00000
v 1.00000 -0.50000 -2.00000
v 1.00000 -1.50000 -2.00000
v 2.00000 -1.50000 -2.00000
v 2.00000 -0.50000 -2.00000
v 2.00000 -0.50000 0.00000
v 3.00000 -0.50000 0.00000
v 3.00000 1.50000 -1.00000
v 3.00000 0.50000 -1.00000
v 4.00000 0.50000 -1.00000
v 4.00000 1.50000 -1.00000
v 3.00000 -0.50000 -1.00000
v -4.00000 -0.50000 -1.00000
v -2.00000 -0.50000 -3.00000
v 3.00000 -0.50000 -2.00000

vt 0.03125 0.12500
vt 0.03125 0.03125
vt 0.25000 0.03125
vt 0.25000 0.12500
vt 0.31250 0.09375
vt 0.31250 0.03125
vt 0.46875 0.03125
vt 0.46875 0.09375
vt 0.53125 0.09375
vt 0.53125 0.03125
vt 0.68750 0.03125
vt 0.68750 0.09375
vt 0.75000 0.09375
vt 0.75000 0.03125
vt 0.84375 0.03125
vt 0.84375 0.09375
vt 0.90625 0.09375
vt 0.90625 0.03125
vt 0.96875 0.03125
vt 0.96875 0.09375
vt 0.03125 0.25000
vt 0.03125 0.18750
vt 0.06250 0.18750
vt 0.06250 0.25000
vt 0.12500 0.25000
vt 0.12500 0.18750
vt 0.15625 0.18750
vt 0.15625 0.25000
vt 0.21875 0.25000
vt 0.21875 0.18750
vt 0.25000 0.18750
vt 0.25000 0.25000
vt 0.31250 0.21875
vt 0.31250 0.18750
vt 0.46875 0.18750
vt 0.46875 0.21875
vt 0.53125 0.21875
vt 0.53125 0.18750
vt 0.65625 0.18750
vt 0.65625 0.21875
vt 0.71875 0.21875
vt 0.71875 0.18750
vt 0.81250 0.18750
vt 0.81250 0.21875
vt 0.87500 0.21875
vt 0.87500 0.18750
vt 0.93750 0.18750
vt 0.93750 0.21875
vt 0.03125 0.34375
vt 0.03125 0.31250
vt 0.09375 0.31250
vt 0.09375 0.34375
vt 0.15625 0.34375
vt 0.15625 0.31250
vt 0.21875 0.31250
vt 0.21875 0.34375
vt 0.28125 0.34375
vt 0.28125 0.31250
vt 0.31250 0.31250
vt 0.31250 0.34375
vt 0.37500 0.34375
vt 0.37500 0.31250
vt 0.40625 0.31250
vt 0.40625 0.34375
vt 0.46875 0.34375
vt 0.46875 0.31250
vt 0.50000 0.31250
vt 0.50000 0.34375
vt 0.56250 0.34375
vt 0.56250 0.31250
vt 0.59375 0.31250
vt 0.59375 0.34375
vt 0.65625 0.34375
vt 0.65625 0.31250
vt 0.68750 0.31250
vt 0.68750 0.34375
vt 0.75000 0.34375
vt 0.75000 0.31250
vt 0.78125 0.31250
vt 0.78125 0.34375
vt 0.84375 0.34375
vt 0.84375 0.31250
vt 0.87500 0.31250
vt 0.87500 0.34375
vt 0.93750 0.34375
vt 0.93750 0.31250
vt 0.96875 0.31250
vt 0.96875 0.34375
vt 0.03125 0.43750
vt 0.03125 0.40625
vt 0.06250 0.40625
vt 0.06250 0.43750
vt 0.12500 0.43750
vt 0.12500 0.40625
vt 0.15625 0.40625
vt 0.15625 0.43750
vt 0.21875 0.43750
vt 0.21875 0.40625
vt 0.25000 0.40625
vt 0.25000 0.43750
vt 0.31250 0.43750
vt 0.31250 0.40625
vt 0.34375 0.40625
vt 0.34375 0.43750
vt 0.40625 0.43750
vt 0.40625 0.40625
vt 0.43750 0.40625
vt 0.43750 0.43750
vt 0.50000 0.43750
vt 0.50000 0.40625
vt 0.53125 0.40625
vt 0.53125 0.43750
vt 0.59375 0.43750
vt 0.59375 0.40625
vt 0.62500 0.40625
vt 0.62500 0.43750
vt 0.68750 0.43750
vt 0.68750 0.40625
vt 0.71875 0.40625
vt 0.71875 0.43750
vt 0.78125 0.43750
vt 0.78125 0.40625
vt 0.81250 0.40625
vt 0.81250 0.43750
vt 0.87500 0.43750
vt 0.87500 0.40625
vt 0.90625 0.40625
vt 0.90625 0.43750
vt 0.03125 0.53125
vt 0.03125 0.50000
vt 0.06250 0.50000
vt 0.06250 0.53125
vt 0.12500 0.53125
vt 0.12500 0.50000
vt 0.15625 0.50000
vt 0.15625 0.53125
vt 0.21875 0.53125
vt 0.21875 0.50000
vt 0.25000 0.50000
vt 0.25000 0.53125
vt 0.31250 0.53125
vt 0.31250 0.50000
vt 0.34375 0.50000
vt 0.34375 0.53125
vt 0.40625 0.53125
vt 0.40625 0.50000
vt 0.43750 0.50000
vt 0.43750 0.53125

g Box_63
usemtl duckpeck_Material
f  1/9/2 2/10/2 3/11/2 4/12/2
f  5/21/2 6/22/2 7/23/2 8/24/2
f  9/45/2 10/46/2 8/47/2 1/48/2
f  11/97/2 12/98/2 13/99/2 14/100/2
f  15/93/2 16/94/2 17/95/2 18/96/2
f  10/77/2 19/78/2 20/79/2 5/80/2
f  21/61/2 22/62/2 23/63/2 24/64/2
f  25/5/1 26/6/1 27/7/1 28/8/1
f  29/29/1 30/30/1 31/31/1 32/32/1
f  28/53/1 29/54/1 33/55/1 34/56/1
f  35/69/1 36/70/1 37/71/1 38/72/1
f  39/101/1 40/102/1 41/103/1 42/104/1
f  32/133/1 43/134/1 44/135/1 33/136/1
f  45/129/1 46/130/1 47/131/1 48/132/1
f  4/13/3 3/14/3 26/15/3 25/16/3
f  14/145/3 13/146/3 36/147/3 35/148/3
f  2/141/3 7/142/3 40/143/3 39/144/3
f  18/125/3 17/126/3 30/127/3 27/128/3
f  46/49/4 49/50/4 19/51/4 10/52/4
f  34/25/4 44/26/4 49/27/4 45/28/4
f  38/113/4 37/114/4 12/115/4 11/116/4
f  42/121/4 41/122/4 6/123/4 20/124/4
f  43/117/4 31/118/4 16/119/4 15/120/4
f  24/105/4 23/106/4 10/107/4 9/108/4
f  48/109/4 47/110/4 22/111/4 21/112/4
f  4/1/5 25/2/5 34/3/5 9/4/5
f  24/137/5 45/138/5 48/139/5 21/140/5
f  26/33/6 50/34/6 18/35/6 27/36/6
f  50/17/6 3/18/6 51/19/6 35/20/6
f  14/41/6 51/42/6 2/43/6 39/44/6
f  38/37/6 11/38/6 52/39/6 49/40/6
f  36/73/6 13/74/6 12/75/6 37/76/6
f  40/65/6 7/66/6 6/67/6 41/68/6
f  30/57/6 17/58/6 16/59/6 31/60/6
f  42/89/6 20/90/6 19/91/6 52/92/6
f  43/81/6 15/82/6 49/83/6 44/84/6
f  46/85/6 23/86/6 22/87/6 47/88/6
