# This file was created with Minddesk Qubicle 2.0
# Get Qubicle at www.minddesk.com

mtllib bin2.mtl

vn 0.0 0.0 1.0
vn 0.0 0.0 -1.0
vn -1.0 0.0 0.0
vn 1.0 0.0 0.0
vn 0.0 1.0 0.0
vn 0.0 -1.0 0.0

v 2.50000 3.50000 -5.00000
v 2.50000 -3.50000 -5.00000
v -2.50000 -3.50000 -5.00000
v -2.50000 3.50000 -5.00000
v 1.50000 3.50000 -1.00000
v 1.50000 -2.50000 -1.00000
v -1.50000 -2.50000 -1.00000
v -1.50000 3.50000 -1.00000
v -2.50000 3.50000 0.00000
v -2.50000 -3.50000 0.00000
v 2.50000 -3.50000 0.00000
v 2.50000 3.50000 0.00000
v -1.50000 3.50000 -4.00000
v -1.50000 -2.50000 -4.00000
v 1.50000 -2.50000 -4.00000
v 1.50000 3.50000 -4.00000
v -2.50000 3.50000 -1.00000
v -1.50000 3.50000 -5.00000
v 1.50000 3.50000 0.00000
v 2.50000 3.50000 -4.00000

vt 0.03125 0.25000
vt 0.03125 0.03125
vt 0.18750 0.03125
vt 0.18750 0.25000
vt 0.25000 0.25000
vt 0.25000 0.03125
vt 0.40625 0.03125
vt 0.40625 0.25000
vt 0.46875 0.25000
vt 0.46875 0.03125
vt 0.62500 0.03125
vt 0.62500 0.25000
vt 0.68750 0.25000
vt 0.68750 0.03125
vt 0.84375 0.03125
vt 0.84375 0.25000
vt 0.03125 0.50000
vt 0.03125 0.31250
vt 0.12500 0.31250
vt 0.12500 0.50000
vt 0.18750 0.50000
vt 0.18750 0.31250
vt 0.28125 0.31250
vt 0.28125 0.50000
vt 0.34375 0.50000
vt 0.34375 0.31250
vt 0.43750 0.31250
vt 0.43750 0.50000
vt 0.50000 0.50000
vt 0.50000 0.31250
vt 0.59375 0.31250
vt 0.59375 0.50000
vt 0.65625 0.46875
vt 0.65625 0.31250
vt 0.81250 0.31250
vt 0.81250 0.46875
vt 0.90625 0.15625
vt 0.90625 0.03125
vt 0.93750 0.03125
vt 0.93750 0.15625
vt 0.87500 0.43750
vt 0.87500 0.31250
vt 0.90625 0.31250
vt 0.90625 0.43750
vt 0.03125 0.65625
vt 0.03125 0.56250
vt 0.12500 0.56250
vt 0.12500 0.65625
vt 0.18750 0.59375
vt 0.18750 0.56250
vt 0.31250 0.56250
vt 0.31250 0.59375
vt 0.37500 0.59375
vt 0.37500 0.56250
vt 0.50000 0.56250
vt 0.50000 0.59375

g Box_24
usemtl bin2_Material
f  1/9/2 2/10/2 3/11/2 4/12/2
f  5/21/2 6/22/2 7/23/2 8/24/2
f  9/13/1 10/14/1 11/15/1 12/16/1
f  13/25/1 14/26/1 15/27/1 16/28/1
f  4/1/3 3/2/3 10/3/3 9/4/3
f  16/17/3 15/18/3 6/19/3 5/20/3
f  12/5/4 11/6/4 2/7/4 1/8/4
f  8/29/4 7/30/4 14/31/4 13/32/4
f  14/45/5 7/46/5 6/47/5 15/48/5
f  4/37/5 17/38/5 8/39/5 18/40/5
f  17/49/5 9/50/5 19/51/5 5/52/5
f  18/53/5 13/54/5 20/55/5 1/56/5
f  16/41/5 19/42/5 12/43/5 20/44/5
f  10/33/6 3/34/6 2/35/6 11/36/6
