# This file was created with Minddesk Qubicle 2.0
# Get Qubicle at www.minddesk.com

mtllib deadtree2.mtl

vn 0.0 0.0 1.0
vn 0.0 0.0 -1.0
vn -1.0 0.0 0.0
vn 1.0 0.0 0.0
vn 0.0 1.0 0.0
vn 0.0 -1.0 0.0

v -1.00000 4.00000 -7.00000
v -1.00000 -3.00000 -7.00000
v -2.00000 -3.00000 -7.00000
v -2.00000 4.00000 -7.00000
v 1.00000 2.00000 -7.00000
v 1.00000 -2.00000 -7.00000
v -1.00000 -2.00000 -7.00000
v -1.00000 2.00000 -7.00000
v 2.00000 2.00000 -7.00000
v 2.00000 -3.00000 -7.00000
v 1.00000 -3.00000 -7.00000
v -3.00000 -3.00000 -6.00000
v -3.00000 -4.00000 -6.00000
v -5.00000 -4.00000 -6.00000
v -5.00000 -3.00000 -6.00000
v 1.00000 -2.00000 -8.00000
v 1.00000 -3.00000 -8.00000
v -1.00000 -3.00000 -8.00000
v -1.00000 -2.00000 -8.00000
v 2.00000 3.00000 -7.00000
v 0.00000 2.00000 -7.00000
v 0.00000 3.00000 -7.00000
v -2.00000 -4.00000 -7.00000
v -3.00000 -4.00000 -7.00000
v -3.00000 -3.00000 -7.00000
v -2.00000 -2.00000 -6.00000
v -2.00000 -3.00000 -6.00000
v -3.00000 -2.00000 -6.00000
v -1.00000 -4.00000 -8.00000
v -2.00000 -4.00000 -8.00000
v -2.00000 -3.00000 -8.00000
v -1.00000 4.00000 -4.00000
v -1.00000 3.00000 -4.00000
v -2.00000 3.00000 -4.00000
v -2.00000 4.00000 -4.00000
v 0.00000 -3.00000 -9.00000
v 0.00000 -4.00000 -9.00000
v -1.00000 -4.00000 -9.00000
v -1.00000 -3.00000 -9.00000
v 0.00000 3.00000 -6.00000
v 0.00000 2.00000 -6.00000
v -1.00000 2.00000 -6.00000
v -1.00000 3.00000 -6.00000
v 0.00000 4.00000 -5.00000
v 0.00000 3.00000 -5.00000
v -1.00000 3.00000 -5.00000
v -1.00000 4.00000 -5.00000
v 1.00000 -3.00000 -10.00000
v 1.00000 -4.00000 -10.00000
v 0.00000 -4.00000 -10.00000
v 0.00000 -3.00000 -10.00000
v 1.00000 4.00000 -6.00000
v 1.00000 3.00000 -6.00000
v 0.00000 4.00000 -6.00000
v 2.00000 -3.00000 -8.00000
v 2.00000 -4.00000 -8.00000
v 1.00000 -4.00000 -8.00000
v 2.00000 4.00000 -7.00000
v 1.00000 3.00000 -7.00000
v 1.00000 4.00000 -7.00000
v 2.00000 4.00000 -5.00000
v 2.00000 3.00000 -5.00000
v 1.00000 3.00000 -5.00000
v 1.00000 4.00000 -5.00000
v 3.00000 -3.00000 -7.00000
v 3.00000 -4.00000 -7.00000
v 2.00000 -4.00000 -7.00000
v 3.00000 -2.00000 -6.00000
v 3.00000 -3.00000 -6.00000
v 2.00000 -3.00000 -6.00000
v 2.00000 -2.00000 -6.00000
v 4.00000 -3.00000 -6.00000
v 4.00000 -4.00000 -6.00000
v 3.00000 -4.00000 -6.00000
v 5.00000 -3.00000 -5.00000
v 5.00000 -4.00000 -5.00000
v 4.00000 -4.00000 -5.00000
v 4.00000 -3.00000 -5.00000
v -2.00000 4.00000 -3.00000
v -2.00000 -3.00000 -3.00000
v -1.00000 -3.00000 -3.00000
v -1.00000 4.00000 -3.00000
v -1.00000 2.00000 -3.00000
v -1.00000 -2.00000 -3.00000
v 1.00000 -2.00000 -3.00000
v 1.00000 2.00000 -3.00000
v 1.00000 3.00000 -3.00000
v 1.00000 -3.00000 -3.00000
v 2.00000 -3.00000 -3.00000
v 2.00000 3.00000 -3.00000
v 2.00000 3.00000 -4.00000
v 2.00000 4.00000 -4.00000
v -1.00000 -2.00000 -2.00000
v -1.00000 -3.00000 -2.00000
v 1.00000 -3.00000 -2.00000
v 1.00000 -2.00000 -2.00000
v 3.00000 -3.00000 -4.00000
v 3.00000 -4.00000 -4.00000
v 5.00000 -4.00000 -4.00000
v 5.00000 -3.00000 -4.00000
v -5.00000 -3.00000 -5.00000
v -5.00000 -4.00000 -5.00000
v -4.00000 -4.00000 -5.00000
v -4.00000 -3.00000 -5.00000
v -4.00000 -3.00000 -4.00000
v -4.00000 -4.00000 -4.00000
v -3.00000 -4.00000 -4.00000
v -3.00000 -3.00000 -4.00000
v -3.00000 -3.00000 -3.00000
v -3.00000 -4.00000 -3.00000
v -2.00000 -4.00000 -3.00000
v -3.00000 -2.00000 -4.00000
v -2.00000 -3.00000 -4.00000
v -2.00000 -2.00000 -4.00000
v -2.00000 -3.00000 -2.00000
v -2.00000 -4.00000 -2.00000
v -1.00000 -4.00000 -2.00000
v -2.00000 4.00000 -5.00000
v -2.00000 3.00000 -5.00000
v -1.00000 -3.00000 0.00000
v -1.00000 -4.00000 0.00000
v 0.00000 -4.00000 0.00000
v 0.00000 -3.00000 0.00000
v -1.00000 3.00000 -3.00000
v 0.00000 2.00000 -3.00000
v 0.00000 3.00000 -3.00000
v 0.00000 -3.00000 -1.00000
v 0.00000 -4.00000 -1.00000
v 1.00000 -4.00000 -1.00000
v 1.00000 -3.00000 -1.00000
v 0.00000 3.00000 -4.00000
v 0.00000 2.00000 -4.00000
v 1.00000 2.00000 -4.00000
v 1.00000 3.00000 -4.00000
v 1.00000 -4.00000 -2.00000
v 2.00000 -4.00000 -2.00000
v 2.00000 -3.00000 -2.00000
v 2.00000 3.00000 -6.00000
v 2.00000 4.00000 -6.00000
v 2.00000 -4.00000 -3.00000
v 3.00000 -4.00000 -3.00000
v 3.00000 -3.00000 -3.00000
v 2.00000 -2.00000 -4.00000
v 2.00000 -3.00000 -4.00000
v 3.00000 -2.00000 -4.00000
v -2.00000 3.00000 -7.00000
v -2.00000 -1.00000 -7.00000
v -2.00000 -1.00000 -3.00000
v -2.00000 3.00000 -3.00000
v -2.00000 -1.00000 -6.00000
v -2.00000 -1.00000 -4.00000
v 2.00000 -1.00000 -3.00000
v 2.00000 -1.00000 -7.00000
v -1.00000 4.00000 -6.00000
v 2.00000 -1.00000 -6.00000
v 2.00000 -1.00000 -4.00000
v -3.00000 -3.00000 -5.00000
v 1.00000 -3.00000 -9.00000
v 0.00000 -3.00000 -2.00000
v 4.00000 -3.00000 -4.00000
v -1.00000 -4.00000 -3.00000
v 0.00000 -4.00000 -3.00000
v -2.00000 -4.00000 -4.00000
v -1.00000 -4.00000 -4.00000
v -3.00000 -4.00000 -5.00000
v -2.00000 -4.00000 -5.00000
v 0.00000 -4.00000 -2.00000
v 4.00000 -4.00000 -4.00000

vt 0.01563 0.31250
vt 0.01563 0.03125
vt 0.03125 0.03125
vt 0.03125 0.31250
vt 0.06250 0.25000
vt 0.06250 0.03125
vt 0.07813 0.03125
vt 0.07813 0.25000
vt 0.10938 0.25000
vt 0.10938 0.03125
vt 0.12500 0.03125
vt 0.12500 0.25000
vt 0.15625 0.21875
vt 0.15625 0.03125
vt 0.17188 0.03125
vt 0.17188 0.21875
vt 0.20313 0.21875
vt 0.20313 0.03125
vt 0.21875 0.03125
vt 0.21875 0.21875
vt 0.25000 0.21875
vt 0.25000 0.03125
vt 0.26563 0.03125
vt 0.26563 0.21875
vt 0.29688 0.18750
vt 0.29688 0.03125
vt 0.31250 0.03125
vt 0.31250 0.18750
vt 0.34375 0.15625
vt 0.34375 0.03125
vt 0.40625 0.03125
vt 0.40625 0.15625
vt 0.43750 0.15625
vt 0.43750 0.03125
vt 0.50000 0.03125
vt 0.50000 0.15625
vt 0.53125 0.15625
vt 0.53125 0.03125
vt 0.56250 0.03125
vt 0.56250 0.15625
vt 0.59375 0.15625
vt 0.59375 0.03125
vt 0.62500 0.03125
vt 0.62500 0.15625
vt 0.65625 0.15625
vt 0.65625 0.03125
vt 0.67188 0.03125
vt 0.67188 0.15625
vt 0.70313 0.15625
vt 0.70313 0.03125
vt 0.71875 0.03125
vt 0.71875 0.15625
vt 0.75000 0.09375
vt 0.75000 0.03125
vt 0.76563 0.03125
vt 0.76563 0.09375
vt 0.79688 0.09375
vt 0.79688 0.03125
vt 0.81250 0.03125
vt 0.81250 0.09375
vt 0.84375 0.09375
vt 0.84375 0.03125
vt 0.85938 0.03125
vt 0.85938 0.09375
vt 0.89063 0.09375
vt 0.89063 0.03125
vt 0.90625 0.03125
vt 0.90625 0.09375
vt 0.93750 0.09375
vt 0.93750 0.03125
vt 0.95313 0.03125
vt 0.95313 0.09375
vt 0.01563 0.43750
vt 0.01563 0.37500
vt 0.03125 0.37500
vt 0.03125 0.43750
vt 0.06250 0.43750
vt 0.06250 0.37500
vt 0.07813 0.37500
vt 0.07813 0.43750
vt 0.10938 0.43750
vt 0.10938 0.37500
vt 0.12500 0.37500
vt 0.12500 0.43750
vt 0.15625 0.43750
vt 0.15625 0.37500
vt 0.17188 0.37500
vt 0.17188 0.43750
vt 0.20313 0.43750
vt 0.20313 0.37500
vt 0.21875 0.37500
vt 0.21875 0.43750
vt 0.25000 0.43750
vt 0.25000 0.37500
vt 0.26563 0.37500
vt 0.26563 0.43750
vt 0.29688 0.43750
vt 0.29688 0.37500
vt 0.31250 0.37500
vt 0.31250 0.43750
vt 0.34375 0.43750
vt 0.34375 0.37500
vt 0.35938 0.37500
vt 0.35938 0.43750
vt 0.39063 0.40625
vt 0.39063 0.37500
vt 0.43750 0.37500
vt 0.43750 0.40625
vt 0.46875 0.40625
vt 0.46875 0.37500
vt 0.51563 0.37500
vt 0.51563 0.40625
vt 0.54688 0.40625
vt 0.54688 0.37500
vt 0.57813 0.37500
vt 0.57813 0.40625
vt 0.60938 0.40625
vt 0.60938 0.37500
vt 0.64063 0.37500
vt 0.64063 0.40625
vt 0.67188 0.40625
vt 0.67188 0.37500
vt 0.70313 0.37500
vt 0.70313 0.40625
vt 0.73438 0.40625
vt 0.73438 0.37500
vt 0.76563 0.37500
vt 0.76563 0.40625
vt 0.79688 0.40625
vt 0.79688 0.37500
vt 0.82813 0.37500
vt 0.82813 0.40625
vt 0.85938 0.40625
vt 0.85938 0.37500
vt 0.89063 0.37500
vt 0.89063 0.40625
vt 0.92188 0.40625
vt 0.92188 0.37500
vt 0.95313 0.37500
vt 0.95313 0.40625
vt 0.01563 0.53125
vt 0.01563 0.50000
vt 0.04688 0.50000
vt 0.04688 0.53125
vt 0.07813 0.53125
vt 0.07813 0.50000
vt 0.10938 0.50000
vt 0.10938 0.53125
vt 0.14063 0.53125
vt 0.14063 0.50000
vt 0.17188 0.50000
vt 0.17188 0.53125
vt 0.20313 0.53125
vt 0.20313 0.50000
vt 0.23438 0.50000
vt 0.23438 0.53125
vt 0.26563 0.53125
vt 0.26563 0.50000
vt 0.29688 0.50000
vt 0.29688 0.53125
vt 0.32813 0.53125
vt 0.32813 0.50000
vt 0.35938 0.50000
vt 0.35938 0.53125
vt 0.39063 0.53125
vt 0.39063 0.50000
vt 0.42188 0.50000
vt 0.42188 0.53125
vt 0.45313 0.53125
vt 0.45313 0.50000
vt 0.48438 0.50000
vt 0.48438 0.53125
vt 0.51563 0.53125
vt 0.51563 0.50000
vt 0.54688 0.50000
vt 0.54688 0.53125
vt 0.57813 0.53125
vt 0.57813 0.50000
vt 0.60938 0.50000
vt 0.60938 0.53125
vt 0.64063 0.53125
vt 0.64063 0.50000
vt 0.67188 0.50000
vt 0.67188 0.53125
vt 0.70313 0.53125
vt 0.70313 0.50000
vt 0.73438 0.50000
vt 0.73438 0.53125
vt 0.76563 0.53125
vt 0.76563 0.50000
vt 0.79688 0.50000
vt 0.79688 0.53125
vt 0.82813 0.53125
vt 0.82813 0.50000
vt 0.84375 0.50000
vt 0.84375 0.53125
vt 0.87500 0.53125
vt 0.87500 0.50000
vt 0.89063 0.50000
vt 0.89063 0.53125
vt 0.92188 0.53125
vt 0.92188 0.50000
vt 0.93750 0.50000
vt 0.93750 0.53125
vt 0.96875 0.53125
vt 0.96875 0.50000
vt 0.98438 0.50000
vt 0.98438 0.53125
vt 0.01563 0.62500
vt 0.01563 0.59375
vt 0.03125 0.59375
vt 0.03125 0.62500
vt 0.06250 0.62500
vt 0.06250 0.59375
vt 0.07813 0.59375
vt 0.07813 0.62500
vt 0.10938 0.62500
vt 0.10938 0.59375
vt 0.12500 0.59375
vt 0.12500 0.62500
vt 0.15625 0.62500
vt 0.15625 0.59375
vt 0.17188 0.59375
vt 0.17188 0.62500
vt 0.20313 0.62500
vt 0.20313 0.59375
vt 0.21875 0.59375
vt 0.21875 0.62500
vt 0.25000 0.62500
vt 0.25000 0.59375
vt 0.26563 0.59375
vt 0.26563 0.62500
vt 0.29688 0.62500
vt 0.29688 0.59375
vt 0.31250 0.59375
vt 0.31250 0.62500
vt 0.34375 0.62500
vt 0.34375 0.59375
vt 0.35938 0.59375
vt 0.35938 0.62500
vt 0.39063 0.62500
vt 0.39063 0.59375
vt 0.40625 0.59375
vt 0.40625 0.62500
vt 0.43750 0.62500
vt 0.43750 0.59375
vt 0.45313 0.59375
vt 0.45313 0.62500
vt 0.48438 0.62500
vt 0.48438 0.59375
vt 0.50000 0.59375
vt 0.50000 0.62500
vt 0.53125 0.62500
vt 0.53125 0.59375
vt 0.54688 0.59375
vt 0.54688 0.62500
vt 0.57813 0.62500
vt 0.57813 0.59375
vt 0.59375 0.59375
vt 0.59375 0.62500
vt 0.62500 0.62500
vt 0.62500 0.59375
vt 0.64063 0.59375
vt 0.64063 0.62500
vt 0.67188 0.62500
vt 0.67188 0.59375
vt 0.68750 0.59375
vt 0.68750 0.62500
vt 0.71875 0.62500
vt 0.71875 0.59375
vt 0.73438 0.59375
vt 0.73438 0.62500
vt 0.76563 0.62500
vt 0.76563 0.59375
vt 0.78125 0.59375
vt 0.78125 0.62500
vt 0.81250 0.62500
vt 0.81250 0.59375
vt 0.82813 0.59375
vt 0.82813 0.62500
vt 0.85938 0.62500
vt 0.85938 0.59375
vt 0.87500 0.59375
vt 0.87500 0.62500
vt 0.90625 0.62500
vt 0.90625 0.59375
vt 0.92188 0.59375
vt 0.92188 0.62500
vt 0.95313 0.62500
vt 0.95313 0.59375
vt 0.96875 0.59375
vt 0.96875 0.62500
vt 0.01563 0.71875
vt 0.01563 0.68750
vt 0.03125 0.68750
vt 0.03125 0.71875
vt 0.06250 0.71875
vt 0.06250 0.68750
vt 0.07813 0.68750
vt 0.07813 0.71875
vt 0.10938 0.71875
vt 0.10938 0.68750
vt 0.12500 0.68750
vt 0.12500 0.71875
vt 0.15625 0.71875
vt 0.15625 0.68750
vt 0.17188 0.68750
vt 0.17188 0.71875
vt 0.20313 0.71875
vt 0.20313 0.68750
vt 0.21875 0.68750
vt 0.21875 0.71875
vt 0.25000 0.71875
vt 0.25000 0.68750
vt 0.26563 0.68750
vt 0.26563 0.71875
vt 0.29688 0.71875
vt 0.29688 0.68750
vt 0.31250 0.68750
vt 0.31250 0.71875
vt 0.34375 0.71875
vt 0.34375 0.68750
vt 0.35938 0.68750
vt 0.35938 0.71875
vt 0.39063 0.71875
vt 0.39063 0.68750
vt 0.40625 0.68750
vt 0.40625 0.71875
vt 0.43750 0.71875
vt 0.43750 0.68750
vt 0.45313 0.68750
vt 0.45313 0.71875
vt 0.48438 0.71875
vt 0.48438 0.68750
vt 0.50000 0.68750
vt 0.50000 0.71875
vt 0.53125 0.71875
vt 0.53125 0.68750
vt 0.54688 0.68750
vt 0.54688 0.71875
vt 0.57813 0.71875
vt 0.57813 0.68750
vt 0.59375 0.68750
vt 0.59375 0.71875
vt 0.62500 0.71875
vt 0.62500 0.68750
vt 0.64063 0.68750
vt 0.64063 0.71875
vt 0.67188 0.71875
vt 0.67188 0.68750
vt 0.68750 0.68750
vt 0.68750 0.71875
vt 0.71875 0.71875
vt 0.71875 0.68750
vt 0.73438 0.68750
vt 0.73438 0.71875
vt 0.76563 0.71875
vt 0.76563 0.68750
vt 0.78125 0.68750
vt 0.78125 0.71875
vt 0.81250 0.71875
vt 0.81250 0.68750
vt 0.82813 0.68750
vt 0.82813 0.71875
vt 0.85938 0.71875
vt 0.85938 0.68750
vt 0.87500 0.68750
vt 0.87500 0.71875
vt 0.90625 0.71875
vt 0.90625 0.68750
vt 0.92188 0.68750
vt 0.92188 0.71875
vt 0.95313 0.71875
vt 0.95313 0.68750
vt 0.96875 0.68750
vt 0.96875 0.71875
vt 0.01563 0.81250
vt 0.01563 0.78125
vt 0.03125 0.78125
vt 0.03125 0.81250
vt 0.06250 0.81250
vt 0.06250 0.78125
vt 0.07813 0.78125
vt 0.07813 0.81250
vt 0.10938 0.81250
vt 0.10938 0.78125
vt 0.12500 0.78125
vt 0.12500 0.81250
vt 0.15625 0.81250
vt 0.15625 0.78125
vt 0.17188 0.78125
vt 0.17188 0.81250
vt 0.20313 0.81250
vt 0.20313 0.78125
vt 0.21875 0.78125
vt 0.21875 0.81250
vt 0.25000 0.81250
vt 0.25000 0.78125
vt 0.26563 0.78125
vt 0.26563 0.81250
vt 0.29688 0.81250
vt 0.29688 0.78125
vt 0.31250 0.78125
vt 0.31250 0.81250
vt 0.34375 0.81250
vt 0.34375 0.78125
vt 0.35938 0.78125
vt 0.35938 0.81250
vt 0.39063 0.81250
vt 0.39063 0.78125
vt 0.40625 0.78125
vt 0.40625 0.81250
vt 0.43750 0.81250
vt 0.43750 0.78125
vt 0.45313 0.78125
vt 0.45313 0.81250
vt 0.48438 0.81250
vt 0.48438 0.78125
vt 0.50000 0.78125
vt 0.50000 0.81250
vt 0.53125 0.81250
vt 0.53125 0.78125
vt 0.54688 0.78125
vt 0.54688 0.81250
vt 0.57813 0.81250
vt 0.57813 0.78125
vt 0.59375 0.78125
vt 0.59375 0.81250
vt 0.62500 0.81250
vt 0.62500 0.78125
vt 0.64063 0.78125
vt 0.64063 0.81250
vt 0.67188 0.81250
vt 0.67188 0.78125
vt 0.68750 0.78125
vt 0.68750 0.81250
vt 0.71875 0.81250
vt 0.71875 0.78125
vt 0.73438 0.78125
vt 0.73438 0.81250
vt 0.76563 0.81250
vt 0.76563 0.78125
vt 0.78125 0.78125
vt 0.78125 0.81250
vt 0.81250 0.81250
vt 0.81250 0.78125
vt 0.82813 0.78125
vt 0.82813 0.81250
vt 0.85938 0.81250
vt 0.85938 0.78125
vt 0.87500 0.78125
vt 0.87500 0.81250
vt 0.90625 0.81250
vt 0.90625 0.78125
vt 0.92188 0.78125
vt 0.92188 0.81250
vt 0.95313 0.81250
vt 0.95313 0.78125
vt 0.96875 0.78125
vt 0.96875 0.81250
vt 0.01563 0.90625
vt 0.01563 0.87500
vt 0.03125 0.87500
vt 0.03125 0.90625
vt 0.06250 0.90625
vt 0.06250 0.87500
vt 0.07813 0.87500
vt 0.07813 0.90625
vt 0.10938 0.90625
vt 0.10938 0.87500
vt 0.12500 0.87500
vt 0.12500 0.90625
vt 0.15625 0.90625
vt 0.15625 0.87500
vt 0.17188 0.87500
vt 0.17188 0.90625
vt 0.20313 0.90625
vt 0.20313 0.87500
vt 0.21875 0.87500
vt 0.21875 0.90625
vt 0.25000 0.90625
vt 0.25000 0.87500
vt 0.26563 0.87500
vt 0.26563 0.90625
vt 0.29688 0.90625
vt 0.29688 0.87500
vt 0.31250 0.87500
vt 0.31250 0.90625
vt 0.34375 0.90625
vt 0.34375 0.87500
vt 0.35938 0.87500
vt 0.35938 0.90625
vt 0.39063 0.90625
vt 0.39063 0.87500
vt 0.40625 0.87500
vt 0.40625 0.90625
vt 0.43750 0.90625
vt 0.43750 0.87500
vt 0.45313 0.87500
vt 0.45313 0.90625
vt 0.48438 0.90625
vt 0.48438 0.87500
vt 0.50000 0.87500
vt 0.50000 0.90625
vt 0.53125 0.90625
vt 0.53125 0.87500
vt 0.54688 0.87500
vt 0.54688 0.90625
vt 0.57813 0.90625
vt 0.57813 0.87500
vt 0.59375 0.87500
vt 0.59375 0.90625
vt 0.62500 0.90625
vt 0.62500 0.87500
vt 0.64063 0.87500
vt 0.64063 0.90625
vt 0.67188 0.90625
vt 0.67188 0.87500
vt 0.68750 0.87500
vt 0.68750 0.90625
vt 0.71875 0.90625
vt 0.71875 0.87500
vt 0.73438 0.87500
vt 0.73438 0.90625
vt 0.76563 0.90625
vt 0.76563 0.87500
vt 0.78125 0.87500
vt 0.78125 0.90625
vt 0.81250 0.90625
vt 0.81250 0.87500
vt 0.82813 0.87500
vt 0.82813 0.90625
vt 0.85938 0.90625
vt 0.85938 0.87500
vt 0.87500 0.87500
vt 0.87500 0.90625

g Box_11
usemtl deadtree2_Material
f  1/9/2 2/10/2 3/11/2 4/12/2
f  5/37/2 6/38/2 7/39/2 8/40/2
f  9/25/2 10/26/2 11/27/2 5/28/2
f  12/117/2 13/118/2 14/119/2 15/120/2
f  16/129/2 17/130/2 18/131/2 19/132/2
f  20/189/2 9/190/2 21/191/2 22/192/2
f  3/233/2 23/234/2 24/235/2 25/236/2
f  26/237/2 27/238/2 12/239/2 28/240/2
f  18/229/2 29/230/2 30/231/2 31/232/2
f  32/249/2 33/250/2 34/251/2 35/252/2
f  36/245/2 37/246/2 38/247/2 39/248/2
f  40/209/2 41/210/2 42/211/2 43/212/2
f  44/305/2 45/306/2 46/307/2 47/308/2
f  48/309/2 49/310/2 50/311/2 51/312/2
f  52/293/2 53/294/2 40/295/2 54/296/2
f  55/273/2 56/274/2 57/275/2 17/276/2
f  58/277/2 20/278/2 59/279/2 60/280/2
f  61/281/2 62/282/2 63/283/2 64/284/2
f  65/289/2 66/290/2 67/291/2 10/292/2
f  68/285/2 69/286/2 70/287/2 71/288/2
f  72/265/2 73/266/2 74/267/2 69/268/2
f  75/261/2 76/262/2 77/263/2 78/264/2
f  79/5/1 80/6/1 81/7/1 82/8/1
f  83/41/1 84/42/1 85/43/1 86/44/1
f  87/21/1 88/22/1 89/23/1 90/24/1
f  32/109/1 33/110/1 91/111/1 92/112/1
f  93/113/1 94/114/1 95/115/1 96/116/1
f  97/125/1 98/126/1 99/127/1 100/128/1
f  101/317/1 102/318/1 103/319/1 104/320/1
f  105/313/1 106/314/1 107/315/1 108/316/1
f  109/325/1 110/326/1 111/327/1 80/328/1
f  112/321/1 108/322/1 113/323/1 114/324/1
f  115/301/1 116/302/1 117/303/1 94/304/1
f  118/297/1 119/298/1 46/299/1 47/300/1
f  120/257/1 121/258/1 122/259/1 123/260/1
f  124/213/1 83/214/1 125/215/1 126/216/1
f  127/221/1 128/222/1 129/223/1 130/224/1
f  131/217/1 132/218/1 133/219/1 134/220/1
f  95/193/1 135/194/1 136/195/1 137/196/1
f  52/197/1 53/198/1 138/199/1 139/200/1
f  89/205/1 140/206/1 141/207/1 142/208/1
f  143/201/1 144/202/1 97/203/1 145/204/1
f  146/33/3 147/34/3 148/35/3 149/36/3
f  28/169/3 12/170/3 108/171/3 112/172/3
f  147/77/3 3/78/3 27/79/3 150/80/3
f  151/73/3 113/74/3 80/75/3 148/76/3
f  150/145/3 26/146/3 114/147/3 151/148/3
f  4/157/3 146/158/3 119/159/3 118/160/3
f  94/153/3 117/154/3 121/155/3 120/156/3
f  15/253/3 14/254/3 102/255/3 101/256/3
f  104/241/3 103/242/3 106/243/3 105/244/3
f  25/329/3 24/330/3 13/331/3 12/332/3
f  108/469/3 107/470/3 110/471/3 109/472/3
f  31/465/3 30/466/3 23/467/3 3/468/3
f  80/461/3 111/462/3 116/463/3 115/464/3
f  35/481/3 34/482/3 149/483/3 79/484/3
f  39/477/3 38/478/3 29/479/3 18/480/3
f  19/473/3 18/474/3 2/475/3 7/476/3
f  84/445/3 81/446/3 94/447/3 93/448/3
f  47/441/3 46/442/3 33/443/3 32/444/3
f  51/437/3 50/438/3 37/439/3 36/440/3
f  22/457/3 21/458/3 41/459/3 40/460/3
f  54/453/3 40/454/3 45/455/3 44/456/3
f  134/449/3 133/450/3 86/451/3 87/452/3
f  60/485/3 59/486/3 53/487/3 52/488/3
f  90/29/4 152/30/4 153/31/4 20/32/4
f  154/81/4 42/82/4 8/83/4 1/84/4
f  17/161/4 57/162/4 49/163/4 48/164/4
f  155/89/4 70/90/4 10/91/4 153/92/4
f  152/85/4 89/86/4 144/87/4 156/88/4
f  156/165/4 143/166/4 71/167/4 155/168/4
f  145/121/4 97/122/4 69/123/4 68/124/4
f  47/529/4 46/530/4 43/531/4 154/532/4
f  82/525/4 124/526/4 33/527/4 32/528/4
f  123/497/4 122/498/4 128/499/4 127/500/4
f  126/493/4 125/494/4 132/495/4 131/496/4
f  130/489/4 129/490/4 135/491/4 95/492/4
f  6/509/4 11/510/4 17/511/4 16/512/4
f  96/505/4 95/506/4 88/507/4 85/508/4
f  64/501/4 63/502/4 53/503/4 52/504/4
f  10/433/4 67/434/4 56/435/4 55/436/4
f  137/365/4 136/366/4 140/367/4 89/368/4
f  139/361/4 138/362/4 20/363/4 58/364/4
f  92/357/4 91/358/4 62/359/4 61/360/4
f  69/377/4 74/378/4 66/379/4 65/380/4
f  142/373/4 141/374/4 98/375/4 97/376/4
f  78/369/4 77/370/4 73/371/4 72/372/4
f  100/341/4 99/342/4 76/343/4 75/344/4
f  47/105/5 32/106/5 92/107/5 61/108/5
f  15/133/5 101/134/5 157/135/5 12/136/5
f  28/57/5 112/58/5 114/59/5 26/60/5
f  4/53/5 118/54/5 47/55/5 1/56/5
f  39/177/5 18/178/5 17/179/5 158/180/5
f  94/61/5 120/62/5 123/63/5 159/64/5
f  19/181/5 7/182/5 6/183/5 16/184/5
f  84/185/5 93/186/5 96/187/5 85/188/5
f  71/69/5 143/70/5 145/71/5 68/72/5
f  69/65/5 97/66/5 160/67/5 72/68/5
f  104/381/5 105/382/5 108/383/5 157/384/5
f  25/417/5 12/418/5 27/419/5 3/420/5
f  108/413/5 109/414/5 80/415/5 113/416/5
f  31/409/5 3/410/5 2/411/5 18/412/5
f  80/429/5 115/430/5 94/431/5 81/432/5
f  119/425/5 34/426/5 33/427/5 46/428/5
f  35/421/5 79/422/5 82/423/5 32/424/5
f  8/393/5 42/394/5 41/395/5 21/396/5
f  43/389/5 46/390/5 45/391/5 40/392/5
f  33/385/5 124/386/5 126/387/5 131/388/5
f  51/405/5 36/406/5 158/407/5 48/408/5
f  159/401/5 127/402/5 130/403/5 95/404/5
f  132/397/5 125/398/5 86/399/5 133/400/5
f  22/345/5 40/346/5 53/347/5 59/348/5
f  54/349/5 44/350/5 64/351/5 52/352/5
f  17/353/5 11/354/5 10/355/5 55/356/5
f  88/333/5 95/334/5 137/335/5 89/336/5
f  53/337/5 63/338/5 62/339/5 138/340/5
f  134/533/5 87/534/5 90/535/5 91/536/5
f  60/513/5 52/514/5 139/515/5 58/516/5
f  10/517/5 70/518/5 69/519/5 65/520/5
f  144/521/5 89/522/5 142/523/5 97/524/5
f  78/225/5 160/226/5 100/227/5 75/228/5
f  128/1/6 50/2/6 49/3/6 129/4/6
f  161/17/6 38/18/6 37/19/6 162/20/6
f  135/13/6 57/14/6 56/15/6 136/16/6
f  163/49/6 30/50/6 29/51/6 164/52/6
f  140/45/6 67/46/6 66/47/6 141/48/6
f  102/149/6 14/150/6 13/151/6 165/152/6
f  106/173/6 103/174/6 166/175/6 163/176/6
f  165/97/6 24/98/6 23/99/6 166/100/6
f  110/137/6 107/138/6 164/139/6 161/140/6
f  116/141/6 111/142/6 162/143/6 167/144/6
f  121/93/6 117/94/6 167/95/6 122/96/6
f  98/101/6 74/102/6 73/103/6 168/104/6
f  168/269/6 77/270/6 76/271/6 99/272/6
