# This file was created with Minddesk Qubicle 2.0
# Get Qubicle at www.minddesk.com

mtllib grass2.mtl

vn 0.0 0.0 1.0
vn 0.0 0.0 -1.0
vn -1.0 0.0 0.0
vn 1.0 0.0 0.0
vn 0.0 1.0 0.0
vn 0.0 -1.0 0.0

v 0.50000 2.00000 -1.00000
v 0.50000 -2.00000 -1.00000
v -0.50000 -2.00000 -1.00000
v -0.50000 2.00000 -1.00000
v -0.50000 2.00000 0.00000
v -0.50000 -2.00000 0.00000
v 0.50000 -2.00000 0.00000
v 0.50000 2.00000 0.00000

vt 0.06250 0.62500
vt 0.06250 0.12500
vt 0.12500 0.12500
vt 0.12500 0.62500
vt 0.25000 0.62500
vt 0.25000 0.12500
vt 0.31250 0.12500
vt 0.31250 0.62500
vt 0.43750 0.62500
vt 0.43750 0.12500
vt 0.50000 0.12500
vt 0.50000 0.62500
vt 0.62500 0.62500
vt 0.62500 0.12500
vt 0.68750 0.12500
vt 0.68750 0.62500
vt 0.81250 0.25000
vt 0.81250 0.12500
vt 0.87500 0.12500
vt 0.87500 0.25000
vt 0.81250 0.62500
vt 0.81250 0.50000
vt 0.87500 0.50000
vt 0.87500 0.62500

g PlumpStandardMushroom_21
usemtl grass2_Material
f  1/9/2 2/10/2 3/11/2 4/12/2
f  5/5/1 6/6/1 7/7/1 8/8/1
f  4/1/3 3/2/3 6/3/3 5/4/3
f  8/13/4 7/14/4 2/15/4 1/16/4
f  4/21/5 5/22/5 8/23/5 1/24/5
f  6/17/6 3/18/6 2/19/6 7/20/6
